<?xml version="1.0" standalone="no"?>
<!DOCTYPE svg PUBLIC "-//W3C//DTD SVG 20010904//EN"
 "http://www.w3.org/TR/2001/REC-SVG-20010904/DTD/svg10.dtd">
<svg version="1.0" xmlns="http://www.w3.org/2000/svg"
 width="1577.000000pt" height="1577.000000pt" viewBox="0 0 1577.000000 1577.000000"
 preserveAspectRatio="xMidYMid meet">
<metadata>
Created by potrace 1.14, written by Peter Selinger 2001-2017
</metadata>
<g transform="translate(0.000000,1577.000000) scale(0.100000,-0.100000)"
fill="#000000" stroke="none">
<path d="M7797 15754 c-1 -1 -90 -5 -197 -9 -107 -4 -213 -9 -235 -10 -174
-14 -196 -16 -320 -30 -16 -2 -57 -6 -90 -10 -33 -4 -71 -8 -85 -10 -14 -2
-45 -7 -70 -10 -957 -132 -1961 -476 -2795 -958 -623 -359 -1155 -768 -1655
-1268 -197 -197 -292 -300 -451 -489 -97 -115 -261 -321 -302 -380 -9 -14 -37
-52 -62 -85 -100 -133 -435 -650 -435 -670 0 -3 -13 -26 -29 -52 -63 -103
-252 -472 -324 -634 -9 -19 -30 -65 -46 -102 -16 -37 -55 -131 -87 -209 -31
-79 -62 -156 -69 -173 -41 -93 -201 -596 -240 -755 -9 -36 -21 -83 -26 -105
-6 -22 -12 -47 -14 -55 -2 -8 -12 -53 -24 -100 -22 -96 -67 -315 -76 -375 -3
-22 -12 -78 -20 -125 -29 -175 -58 -411 -70 -575 -4 -44 -8 -96 -10 -115 -16
-136 -22 -592 -13 -890 6 -212 -8 -115 -27 175 -19 296 -28 329 -20 70 9 -293
15 -392 31 -555 10 -106 32 -298 39 -350 2 -14 7 -45 10 -70 3 -25 13 -85 21
-135 8 -49 17 -103 20 -120 3 -16 12 -64 20 -105 9 -41 17 -86 20 -100 9 -49
27 -128 66 -285 22 -88 41 -167 43 -175 21 -91 136 -450 203 -635 172 -473
452 -1052 716 -1479 79 -127 236 -369 245 -376 3 -3 11 -12 16 -21 79 -127
361 -487 555 -709 209 -238 532 -558 764 -755 33 -27 64 -55 70 -60 47 -44
357 -286 441 -345 20 -14 42 -29 48 -35 92 -75 505 -339 712 -454 61 -34 117
-65 125 -71 24 -15 497 -250 504 -250 3 0 34 -13 68 -29 35 -16 113 -49 174
-75 105 -43 159 -64 404 -152 326 -119 903 -268 1250 -323 36 -6 74 -13 85
-15 11 -2 45 -7 75 -11 30 -4 62 -8 70 -10 8 -1 42 -6 75 -10 32 -4 66 -8 75
-10 8 -2 49 -6 90 -9 41 -4 86 -9 100 -11 50 -8 186 -18 436 -30 318 -16 834
-2 1104 30 19 2 60 7 90 10 30 3 71 8 90 10 19 2 59 7 89 10 30 4 61 8 70 10
9 1 52 8 96 14 44 7 103 16 130 21 28 5 64 12 80 15 17 3 41 7 55 10 14 3 41
8 60 11 19 3 37 7 40 9 3 2 25 6 49 10 24 3 55 11 70 16 14 6 27 10 29 9 8 -5
358 82 487 121 339 102 673 223 910 329 22 10 74 32 115 50 187 81 643 320
824 433 303 188 599 391 770 528 81 65 329 270 356 294 19 18 60 54 90 81 277
249 588 577 828 874 52 63 101 124 109 134 18 22 199 268 223 302 46 67 197
291 205 306 6 9 47 77 92 150 44 73 91 151 104 173 438 777 727 1563 893 2430
18 92 36 198 41 235 3 25 8 56 10 70 2 14 7 45 10 70 3 25 8 56 10 70 2 14 7
52 11 85 3 33 8 67 9 76 2 9 6 56 10 105 3 49 8 100 10 114 26 170 26 1142 1
1275 -2 11 -7 63 -11 115 -3 52 -8 102 -10 110 -2 8 -7 44 -10 80 -4 36 -9 73
-10 82 -2 9 -6 43 -10 75 -3 32 -8 65 -10 73 -2 8 -7 35 -10 60 -3 25 -10 68
-15 95 -5 28 -12 66 -15 85 -4 19 -10 53 -15 75 -5 22 -11 56 -14 76 -3 19
-15 75 -26 125 -12 49 -23 97 -25 107 -2 10 -6 26 -9 35 -3 9 -8 32 -11 51 -3
19 -8 37 -10 41 -2 4 -6 20 -9 36 -3 16 -28 108 -56 204 -179 621 -410 1170
-730 1735 -120 212 -349 564 -498 765 -87 117 -255 332 -282 360 -8 9 -33 37
-55 64 -194 234 -514 564 -755 776 -47 41 -87 78 -90 81 -30 34 -388 317 -540
428 -70 51 -355 244 -426 288 -71 45 -315 189 -391 231 -86 48 -508 262 -516
262 -2 0 -35 14 -73 32 -38 17 -71 32 -74 33 -3 1 -16 6 -30 12 -298 127 -611
239 -897 322 -129 37 -426 114 -483 125 -14 2 -45 9 -70 15 -25 5 -61 13 -80
16 -19 3 -42 8 -50 10 -8 2 -26 6 -40 9 -14 2 -52 9 -85 15 -33 6 -76 13 -95
16 -19 3 -46 8 -60 10 -51 9 -176 27 -205 30 -41 4 -123 14 -165 19 -55 7
-138 15 -225 21 -44 4 -96 8 -115 10 -63 7 -637 24 -643 19z"/>
<path d="M1 8034 c0 -11 3 -14 6 -6 3 7 2 16 -1 19 -3 4 -6 -2 -5 -13z"/>
</g>
</svg>
